# xmcd CD database file
#
# Track frame offsets:
#	150
#	71613
#	135932
#	187179
#	245076
#
# Disc length: 4355 seconds
#
# Revision: 0
# Processed by: cddbd v1.4PL0 Copyright (c) Steve Scherf et al.
# Submitted via: CDex 1.50
#
DISCID=46110105
DTITLE=Benevento/Russo - Darts
DYEAR=2003
DGENRE=Jazz
TTITLE0=Abduction Pose
TTITLE1=Big Whopper
TTITLE2=Darts
TTITLE3=Ambiguously?
TTITLE4=Marzipan
EXTD=YEAR: 2003
EXTT0=
EXTT1=
EXTT2=
EXTT3=
EXTT4=
PLAYORDER=
